PathFileType	4	(X/Y/Z)	C:\Users\italobelli\Desktop\GitHub\PTbot_officialCBL\Personal_Results\SHRUG23_noisy1.trc
DataRate	CameraRate	NumFrames	NumMarkers	Units	OrigDataRate	OrigDataStartFrame	OrigNumFrames
108.909091	108.909091	34	9	m	108.909091	376	600
Frame#	Time		gu		centelbow		EpL		centpxt8		centijc7		ij		ts		aa		ai
			X1	Y1	Z1	X2	Y2	Z2	X3	Y3	Z3	X4	Y4	Z4	X5	Y5	Z5	X6	Y6	Z6	X7	Y7	Z7	X8	Y8	Z8	X9	Y9	Z9

376	3.4432	-0.096028	-0.012093	0.15995	-0.14474	-0.2619	0.1743	-0.12706	-0.25837	0.20091	-0.046816	-0.15316	-0.008669	-0.046816	0.031938	-0.008669	0	0	0	-0.13929	0.033839	0.047331	-0.11927	0.025566	0.16425	-0.16643	-0.076239	0.04996
377	3.4524	-0.095847	-0.012482	0.16014	-0.14507	-0.26235	0.17416	-0.12729	-0.2589	0.20074	-0.046816	-0.15316	-0.008669	-0.046816	0.031938	-0.008669	0	0	0	-0.13946	0.033785	0.04767	-0.119	0.025276	0.16459	-0.16682	-0.076277	0.050117
378	3.4616	-0.095695	-0.012809	0.16029	-0.14535	-0.26273	0.17405	-0.12748	-0.25935	0.20061	-0.046816	-0.15316	-0.008669	-0.046816	0.031938	-0.008669	0	0	0	-0.13961	0.033736	0.047955	-0.11877	0.025034	0.16488	-0.16714	-0.076313	0.050249
379	3.4708	-0.095575	-0.013072	0.16043	-0.14557	-0.26306	0.17396	-0.12763	-0.25973	0.2005	-0.046816	-0.15316	-0.008669	-0.046816	0.031938	-0.008669	0	0	0	-0.13974	0.033693	0.048185	-0.11858	0.02484	0.16511	-0.16741	-0.076346	0.050355
380	3.48	-0.095486	-0.013269	0.16054	-0.14574	-0.26331	0.17389	-0.12774	-0.26001	0.20041	-0.046816	-0.15316	-0.008669	-0.046816	0.031938	-0.008669	0	0	0	-0.13985	0.033657	0.048357	-0.11844	0.024697	0.16528	-0.16762	-0.076376	0.050434
381	3.4891	-0.095431	-0.013397	0.16062	-0.14584	-0.26349	0.17384	-0.12781	-0.26021	0.20035	-0.046816	-0.15316	-0.008669	-0.046816	0.031938	-0.008669	0	0	0	-0.13993	0.033626	0.04847	-0.11835	0.024607	0.1654	-0.16776	-0.076403	0.050485
382	3.4983	-0.095411	-0.013454	0.16068	-0.14588	-0.26359	0.17381	-0.12783	-0.26032	0.20032	-0.046816	-0.15316	-0.008669	-0.046816	0.031938	-0.008669	0	0	0	-0.13999	0.033603	0.04852	-0.11831	0.024571	0.16545	-0.16783	-0.076427	0.050507
383	3.5075	-0.095419	-0.01346	0.16072	-0.14587	-0.26364	0.1738	-0.12782	-0.26037	0.20032	-0.046816	-0.15316	-0.008669	-0.046816	0.031938	-0.008669	0	0	0	-0.14003	0.033584	0.048524	-0.11831	0.024574	0.16545	-0.16786	-0.076449	0.050506
384	3.5167	-0.095439	-0.01346	0.16076	-0.14586	-0.26369	0.17381	-0.12781	-0.26041	0.20032	-0.046816	-0.15316	-0.008669	-0.046816	0.031938	-0.008669	0	0	0	-0.14007	0.033565	0.048518	-0.11833	0.024581	0.16545	-0.16788	-0.07647	0.050495
385	3.5259	-0.095472	-0.013458	0.16079	-0.14583	-0.26374	0.17382	-0.1278	-0.26045	0.20034	-0.046816	-0.15316	-0.008669	-0.046816	0.031938	-0.008669	0	0	0	-0.14011	0.033547	0.048503	-0.11837	0.024589	0.16544	-0.16791	-0.076491	0.050476
386	3.5351	-0.095516	-0.013451	0.16082	-0.1458	-0.26378	0.17384	-0.12778	-0.26049	0.20037	-0.046816	-0.15316	-0.008669	-0.046816	0.031938	-0.008669	0	0	0	-0.14015	0.033529	0.04848	-0.11842	0.0246	0.16542	-0.16793	-0.076512	0.050449
387	3.5442	-0.09557	-0.013441	0.16085	-0.14576	-0.26382	0.17387	-0.12776	-0.26052	0.20041	-0.046816	-0.15316	-0.008669	-0.046816	0.031938	-0.008669	0	0	0	-0.14019	0.033512	0.048448	-0.11848	0.024614	0.1654	-0.16795	-0.076533	0.050414
388	3.5534	-0.095636	-0.013428	0.16087	-0.14572	-0.26386	0.17391	-0.12773	-0.26056	0.20046	-0.046816	-0.15316	-0.008669	-0.046816	0.031938	-0.008669	0	0	0	-0.14023	0.033495	0.048408	-0.11856	0.024629	0.16538	-0.16796	-0.076553	0.050371
389	3.5626	-0.095711	-0.013412	0.16089	-0.14566	-0.2639	0.17396	-0.1277	-0.26059	0.20052	-0.046816	-0.15316	-0.008669	-0.046816	0.031938	-0.008669	0	0	0	-0.14026	0.033479	0.048361	-0.11866	0.024646	0.16534	-0.16798	-0.076573	0.050321
390	3.5718	-0.095796	-0.013393	0.16091	-0.1456	-0.26394	0.17402	-0.12766	-0.26062	0.2006	-0.046816	-0.15316	-0.008669	-0.046816	0.031938	-0.008669	0	0	0	-0.1403	0.033463	0.048306	-0.11876	0.024665	0.1653	-0.168	-0.076592	0.050263
391	3.581	-0.09589	-0.013371	0.16093	-0.14554	-0.26398	0.17408	-0.12763	-0.26065	0.20068	-0.046816	-0.15316	-0.008669	-0.046816	0.031938	-0.008669	0	0	0	-0.14033	0.033448	0.048245	-0.11888	0.024686	0.16526	-0.16801	-0.076612	0.0502
392	3.5902	-0.095993	-0.013347	0.16095	-0.14546	-0.26401	0.17415	-0.12759	-0.26068	0.20077	-0.046816	-0.15316	-0.008669	-0.046816	0.031938	-0.008669	0	0	0	-0.14037	0.033433	0.048177	-0.11901	0.024709	0.16521	-0.16802	-0.07663	0.05013
393	3.5993	-0.096104	-0.01332	0.16096	-0.14538	-0.26404	0.17423	-0.12754	-0.2607	0.20087	-0.046816	-0.15316	-0.008669	-0.046816	0.031938	-0.008669	0	0	0	-0.1404	0.033418	0.048103	-0.11915	0.024734	0.16516	-0.16803	-0.076649	0.050054
394	3.6085	-0.096223	-0.01329	0.16097	-0.1453	-0.26407	0.17432	-0.1275	-0.26073	0.20098	-0.046816	-0.15316	-0.008669	-0.046816	0.031938	-0.008669	0	0	0	-0.14043	0.033404	0.048024	-0.1193	0.02476	0.1651	-0.16804	-0.076667	0.049972
395	3.6177	-0.096349	-0.013259	0.16098	-0.14521	-0.2641	0.17441	-0.12745	-0.26075	0.20109	-0.046816	-0.15316	-0.008669	-0.046816	0.031938	-0.008669	0	0	0	-0.14046	0.03339	0.047938	-0.11946	0.024788	0.16504	-0.16805	-0.076685	0.049886
396	3.6269	-0.096482	-0.013225	0.16099	-0.14512	-0.26412	0.1745	-0.1274	-0.26077	0.20122	-0.046816	-0.15316	-0.008669	-0.046816	0.031938	-0.008669	0	0	0	-0.14049	0.033377	0.047848	-0.11963	0.024817	0.16498	-0.16806	-0.076702	0.049794
397	3.6361	-0.096621	-0.013189	0.16099	-0.14502	-0.26415	0.1746	-0.12734	-0.26079	0.20135	-0.046816	-0.15316	-0.008669	-0.046816	0.031938	-0.008669	0	0	0	-0.14052	0.033365	0.047753	-0.11981	0.024847	0.16491	-0.16807	-0.076719	0.049698
398	3.6452	-0.096766	-0.013152	0.161	-0.14492	-0.26417	0.17471	-0.12728	-0.26081	0.20148	-0.046816	-0.15316	-0.008669	-0.046816	0.031938	-0.008669	0	0	0	-0.14054	0.033353	0.047654	-0.12	0.024879	0.16484	-0.16807	-0.076736	0.049597
399	3.6544	-0.096917	-0.013113	0.161	-0.14481	-0.26419	0.17482	-0.12723	-0.26082	0.20162	-0.046816	-0.15316	-0.008669	-0.046816	0.031938	-0.008669	0	0	0	-0.14057	0.033341	0.04755	-0.12019	0.024912	0.16476	-0.16808	-0.076752	0.049493
400	3.6636	-0.097072	-0.013073	0.161	-0.1447	-0.26421	0.17494	-0.12717	-0.26084	0.20177	-0.046816	-0.15316	-0.008669	-0.046816	0.031938	-0.008669	0	0	0	-0.14059	0.03333	0.047443	-0.12039	0.024946	0.16469	-0.16808	-0.076767	0.049385
401	3.6728	-0.097232	-0.013032	0.161	-0.14458	-0.26422	0.17506	-0.1271	-0.26085	0.20192	-0.046816	-0.15316	-0.008669	-0.046816	0.031938	-0.008669	0	0	0	-0.14062	0.03332	0.047333	-0.1206	0.024981	0.16461	-0.16808	-0.076782	0.049274
402	3.682	-0.097396	-0.012989	0.161	-0.14447	-0.26424	0.17518	-0.12704	-0.26086	0.20208	-0.046816	-0.15316	-0.008669	-0.046816	0.031938	-0.008669	0	0	0	-0.14064	0.03331	0.04722	-0.12081	0.025017	0.16453	-0.16808	-0.076797	0.04916
403	3.6912	-0.097564	-0.012945	0.161	-0.14435	-0.26425	0.17531	-0.12697	-0.26087	0.20224	-0.046816	-0.15316	-0.008669	-0.046816	0.031938	-0.008669	0	0	0	-0.14066	0.0333	0.047104	-0.12102	0.025053	0.16444	-0.16808	-0.076811	0.049043
404	3.7003	-0.097735	-0.012901	0.161	-0.14422	-0.26426	0.17543	-0.12691	-0.26087	0.2024	-0.046816	-0.15316	-0.008669	-0.046816	0.031938	-0.008669	0	0	0	-0.14068	0.033291	0.046985	-0.12124	0.025091	0.16436	-0.16808	-0.076825	0.048924
405	3.7095	-0.097908	-0.012856	0.161	-0.1441	-0.26427	0.17557	-0.12684	-0.26088	0.20257	-0.046816	-0.15316	-0.008669	-0.046816	0.031938	-0.008669	0	0	0	-0.1407	0.033283	0.046865	-0.12146	0.025129	0.16427	-0.16808	-0.076839	0.048803
406	3.7187	-0.098083	-0.01281	0.161	-0.14397	-0.26428	0.1757	-0.12677	-0.26089	0.20273	-0.046816	-0.15316	-0.008669	-0.046816	0.031938	-0.008669	0	0	0	-0.14072	0.033275	0.046743	-0.12169	0.025168	0.16418	-0.16807	-0.076851	0.04868
407	3.7279	-0.098261	-0.012764	0.16099	-0.14384	-0.26429	0.17583	-0.1267	-0.26089	0.20291	-0.046816	-0.15316	-0.008669	-0.046816	0.031938	-0.008669	0	0	0	-0.14074	0.033268	0.046621	-0.12192	0.025207	0.16409	-0.16807	-0.076864	0.048556
408	3.7371	-0.098439	-0.012718	0.16099	-0.14371	-0.26429	0.17597	-0.12663	-0.26089	0.20308	-0.046816	-0.15316	-0.008669	-0.046816	0.031938	-0.008669	0	0	0	-0.14075	0.033261	0.046497	-0.12215	0.025247	0.16401	-0.16806	-0.076875	0.048432
409	3.7462	-0.098619	-0.012671	0.16098	-0.14358	-0.26429	0.17611	-0.12655	-0.26089	0.20325	-0.046816	-0.15316	-0.008669	-0.046816	0.031938	-0.008669	0	0	0	-0.14077	0.033255	0.046373	-0.12238	0.025287	0.16392	-0.16805	-0.076887	0.048306
